<?xml version="1.0" ?><svg style="enable-background:new 0 0 48 48;" version="1.1" viewBox="0 0 48 48" xml:space="preserve" xmlns="http://www.w3.org/2000/svg" xmlns:xlink="http://www.w3.org/1999/xlink"><g id="Icons"><path d="M7.97736,31.54836c0,0.92521,1.90084,1.71828,4.60726,2.05187   c0.88753,0.10699,1.85679,0.16993,2.87636,0.16993c3.2541,0,6.01721-0.61677,7.04951-1.47904   c0.28339-0.23287,0.43422-0.48463,0.43422-0.74276v-1.75308H7.97736V31.54836z" style="fill:#DB9A16;"/><path d="M7.97736,28.85934c0,0.92521,1.90084,1.71828,4.60726,2.05187   c0.88753,0.10699,1.85679,0.16993,2.87636,0.16993c3.2541,0,6.01721-0.61677,7.04951-1.47904   c0.28339-0.23287,0.43422-0.48463,0.43422-0.74276v-1.75308H7.97736V28.85934z" style="fill:#FFC601;"/><path d="M25.05535,31.25943c0,0.92521,1.90084,1.71828,4.60726,2.05187   c0.88753,0.10699,1.85679,0.16993,2.87636,0.16993c3.2541,0,6.01721-0.61678,7.04951-1.47905   c0.28338-0.23287,0.43422-0.48463,0.43422-0.74275v-1.75308H25.05535V31.25943z" style="fill:#DB9A16;"/><path d="M25.05515,28.5607c0,0.92521,1.90084,1.71828,4.60726,2.05187   c0.88753,0.10699,1.85679,0.16993,2.87636,0.16993c3.2541,0,6.0172-0.61677,7.04951-1.47904   c0.28338-0.23287,0.43422-0.48463,0.43422-0.74276v-1.75308H25.05515V28.5607z" style="fill:#FFC601;"/><path d="M25.05515,25.86618c0,0.92521,1.90084,1.71828,4.60726,2.05187   c0.88753,0.10699,1.85679,0.16993,2.87636,0.16993c3.2541,0,6.0172-0.61677,7.04951-1.47904   c0.28338-0.23287,0.43422-0.48463,0.43422-0.74276V24.1131H25.05515V25.86618z" style="fill:#DB9A16;"/><path d="M25.05535,23.08514c0,0.92521,1.90084,1.71828,4.60726,2.05187   c0.88753,0.10699,1.85679,0.16993,2.87636,0.16993c3.2541,0,6.01721-0.61677,7.04951-1.47904   c0.28338-0.23287,0.43422-0.48463,0.43422-0.74276v-1.75308H25.05535V23.08514z" style="fill:#FFC601;"/><path d="M25.05535,20.47869c0,0.92521,1.90084,1.71828,4.60726,2.05187   c0.88753,0.10699,1.85679,0.16993,2.87636,0.16993c3.2541,0,6.01721-0.61677,7.04951-1.47904   c0.28338-0.23287,0.43422-0.48463,0.43422-0.74276V18.7256H25.05535V20.47869z" style="fill:#DB9A16;"/><path d="M25.05535,17.77667c0,0.92521,1.90084,1.71828,4.60726,2.05187   c0.88753,0.10699,1.85679,0.16993,2.87636,0.16993c3.2541,0,6.01721-0.61677,7.04951-1.47904   c0.28338-0.23287,0.43422-0.48463,0.43422-0.74276c0-1.22092-3.34836-2.21554-7.48373-2.21554   C28.40381,15.56114,25.05535,16.55576,25.05535,17.77667z" style="fill:#FFC601;"/><path d="M7.97736,26.10069c0,0.92521,1.90084,1.71828,4.60726,2.05187   c0.88753,0.10699,1.85679,0.16993,2.87636,0.16993c3.2541,0,6.01721-0.61677,7.04951-1.47904   c0.28339-0.23287,0.43422-0.48463,0.43422-0.74276v-1.75308H7.97736V26.10069z" style="fill:#DB9A16;"/><path d="M17.07186,35.38293c0,0.92521,1.90084,1.71828,4.60726,2.05187   c0.88753,0.10699,1.85679,0.16993,2.87636,0.16993c3.2541,0,6.01721-0.61678,7.04951-1.47905   c0.28339-0.23287,0.43422-0.48463,0.43422-0.74276v-1.75308H17.07186V35.38293z" style="fill:#DB9A16;"/><path d="M17.07206,32.60189c0,0.92521,1.90084,1.71828,4.60726,2.05187   c0.88753,0.10699,1.85679,0.16993,2.87636,0.16993c3.2541,0,6.01721-0.61677,7.04951-1.47904   c0.28338-0.23287,0.43422-0.48463,0.43422-0.74276v-1.75308H17.07206V32.60189z" style="fill:#FFC601;"/><path d="M17.07206,29.99544c0,0.92521,1.90084,1.71828,4.60726,2.05187   c0.88753,0.10699,1.85679,0.16993,2.87636,0.16993c3.2541,0,6.01721-0.61677,7.04951-1.47904   c0.28338-0.23287,0.43422-0.48463,0.43422-0.74276v-1.75308H17.07206V29.99544z" style="fill:#DB9A16;"/><path d="M17.07206,27.29343c0,0.92521,1.90084,1.71828,4.60726,2.05187   c0.88753,0.10699,1.85679,0.16993,2.87636,0.16993c3.2541,0,6.01721-0.61677,7.04951-1.47904   c0.28338-0.23287,0.43422-0.48463,0.43422-0.74276c0-1.22092-3.34836-2.21554-7.48372-2.21554   C20.42052,25.07789,17.07206,26.07251,17.07206,27.29343z" style="fill:#FFC601;"/><path d="M7.97715,23.40196c0,0.92521,1.90083,1.71828,4.60726,2.05187   c0.88753,0.10699,1.85679,0.16993,2.87636,0.16993c3.2541,0,6.01721-0.61677,7.04951-1.47904   c0.28338-0.23287,0.43422-0.48463,0.43422-0.74276v-1.75308H7.97715V23.40196z" style="fill:#FFC601;"/><path d="M7.97715,20.70745c0,0.92521,1.90083,1.71828,4.60726,2.05187   c0.88753,0.10699,1.85679,0.16993,2.87636,0.16993c3.2541,0,6.01721-0.61677,7.04951-1.47904   c0.28338-0.23287,0.43422-0.48463,0.43422-0.74276v-1.75308H7.97715V20.70745z" style="fill:#DB9A16;"/><path d="M7.97736,17.9264c0,0.92521,1.90084,1.71828,4.60726,2.05187   c0.88753,0.10699,1.85679,0.16993,2.87636,0.16993c3.2541,0,6.01721-0.61677,7.04951-1.47904   c0.28339-0.23287,0.43422-0.48463,0.43422-0.74276v-1.75308H7.97736V17.9264z" style="fill:#FFC601;"/><path d="M7.97736,15.31995c0,0.92521,1.90084,1.71828,4.60726,2.05187   c0.88753,0.10699,1.85679,0.16993,2.87636,0.16993c3.2541,0,6.01721-0.61677,7.04951-1.47904   c0.28339-0.23287,0.43422-0.48463,0.43422-0.74276v-1.75308H7.97736V15.31995z" style="fill:#DB9A16;"/><path d="M7.97736,12.61794c0,0.92521,1.90084,1.71828,4.60726,2.05187   c0.88753,0.10699,1.85679,0.16993,2.87636,0.16993c3.2541,0,6.01721-0.61677,7.04951-1.47904   c0.28339-0.23287,0.43422-0.48463,0.43422-0.74276c0-1.22092-3.34836-2.21554-7.48372-2.21554   C11.32582,10.4024,7.97736,11.39702,7.97736,12.61794z" style="fill:#FFC601;"/><path d="   M7.97736,12.61794c0,0.92521,1.90084,1.71828,4.60726,2.05187c0.88753,0.10699,1.85679,0.16993,2.87636,0.16993   c3.2541,0,6.01721-0.61677,7.04951-1.47904c0.28339-0.23287,0.43422-0.48463,0.43422-0.74276   c0-1.22092-3.34836-2.21554-7.48372-2.21554C11.32582,10.4024,7.97736,11.39702,7.97736,12.61794z" style="fill:none;stroke:#303030;stroke-width:0.8;stroke-linecap:round;stroke-linejoin:round;stroke-miterlimit:10;"/><path d="   M22.9447,15.36852c0,0.54131-0.64819,1.03846-1.72454,1.4161c-1.00078,0.35895-2.36657,0.61687-3.93381,0.73013   c-0.58525,0.04425-1.19586,0.06931-1.82537,0.06931c-1.1895,0-2.30989-0.08194-3.31067-0.2265   c-0.9441-0.13861-1.78122-0.33359-2.4484-0.57293c-1.07614-0.37764-1.66482-0.83336-1.72454-1.4161" style="fill:none;stroke:#303030;stroke-width:0.8;stroke-linecap:round;stroke-linejoin:round;stroke-miterlimit:10;"/><g><path d="    M22.9447,18.06663c0,0.54131-0.64819,1.03846-1.72454,1.4161c-1.00078,0.35875-2.36657,0.61677-3.93381,0.73013    c-0.58525,0.04405-1.19586,0.06931-1.82537,0.06931c-1.1895,0-2.30989-0.08183-3.31067-0.22671    c-0.9441-0.13841-1.78122-0.33349-2.4484-0.57273c-1.07614-0.37764-1.67443-0.87111-1.72454-1.4161" style="fill:none;stroke:#303030;stroke-width:0.8;stroke-linecap:round;stroke-linejoin:round;stroke-miterlimit:10;"/></g><g><path d="    M22.9447,20.76474c0,0.54131-0.64819,1.03836-1.72454,1.4161c-1.00078,0.35875-2.36657,0.61687-3.93381,0.73023    c-0.58525,0.04395-1.19586,0.0691-1.82537,0.0691c-1.1895,0-2.30989-0.08183-3.31067-0.2266    c-0.9441-0.13841-1.78122-0.33359-2.4484-0.57273c-1.07614-0.37774-1.68919-0.84208-1.72099-1.39695" style="fill:none;stroke:#303030;stroke-width:0.8;stroke-linecap:round;stroke-linejoin:round;stroke-miterlimit:10;"/></g><g><path d="    M22.9447,23.46275c0,0.5412-0.64819,1.03856-1.72454,1.41621c-1.00078,0.35865-2.36657,0.61677-3.93381,0.73013    c-0.58525,0.04405-1.19586,0.0692-1.82537,0.0692c-1.1895,0-2.30989-0.08194-3.31067-0.2266    c-0.9441-0.13841-1.78122-0.33359-2.4484-0.57273c-1.07614-0.37764-1.67681-0.8593-1.72261-1.39655" style="fill:none;stroke:#303030;stroke-width:0.8;stroke-linecap:round;stroke-linejoin:round;stroke-miterlimit:10;"/></g><g><path d="    M7.98944,26.27397c0.07706,0.52145,0.70754,0.95016,1.69815,1.29382c0.66708,0.24252,1.50605,0.43463,2.45621,0.57611    c1.00068,0.14149,2.12261,0.22239,3.30523,0.22239c0.55589,0,1.09165-0.02023,1.60708-0.05052" style="fill:none;stroke:#303030;stroke-width:0.8;stroke-linecap:round;stroke-linejoin:round;stroke-miterlimit:10;"/><line style="fill:none;stroke:#303030;stroke-width:0.8;stroke-linecap:round;stroke-linejoin:round;stroke-miterlimit:10;" x1="22.9485" x2="22.9485" y1="24.88496" y2="12.61794"/></g><g><path d="    M17.05611,31.01075c-0.51543,0.04035-1.0512,0.06058-1.60708,0.06058c-1.18262,0-2.30456-0.08081-3.30523-0.22229    c-0.95016-0.14159-1.84009-0.33742-2.45621-0.57622c-0.85918-0.30828-1.63329-0.77774-1.69815-1.30388" style="fill:none;stroke:#303030;stroke-width:0.8;stroke-linecap:round;stroke-linejoin:round;stroke-miterlimit:10;"/></g><g><path d="    M7.97879,31.55657c0,0.54582,0.64696,1.04103,1.71838,1.41508c0.66708,0.24252,1.50605,0.43462,2.45621,0.57611    c1.00068,0.14149,2.12261,0.2224,3.30523,0.2224c0.55589,0,1.09165-0.02023,1.60708-0.06068" style="fill:none;stroke:#303030;stroke-width:0.8;stroke-linecap:round;stroke-linejoin:round;stroke-miterlimit:10;"/><line style="fill:none;stroke:#303030;stroke-width:0.8;stroke-linecap:round;stroke-linejoin:round;stroke-miterlimit:10;" x1="7.97736" x2="7.97736" y1="12.61794" y2="31.61335"/></g><g><path d="    M25.0552,17.59432c0,0.92521,1.90104,1.71828,4.60737,2.05187c0.88753,0.10699,1.85668,0.16993,2.87636,0.16993    c3.2541,0,6.0172-0.61677,7.04951-1.47904c0.28308-0.23287,0.43422-0.48473,0.43422-0.74276    c0-1.22102-3.34836-2.21554-7.48372-2.21554C28.40376,15.37878,25.0552,16.3733,25.0552,17.59432z" style="fill:none;stroke:#303030;stroke-width:0.8;stroke-linecap:round;stroke-linejoin:round;stroke-miterlimit:10;"/><path d="    M40.02791,20.31865c-0.00526,0.55095-0.65356,1.06471-1.7297,1.44235c-1.00088,0.35875-2.36668,0.61688-3.93402,0.73013    c-0.58525,0.04415-1.19576,0.06931-1.82526,0.06931c-1.1896,0-2.30979-0.08194-3.31067-0.22661    c-0.9441-0.13851-1.78122-0.33359-2.4484-0.57283c-1.07625-0.37764-1.72464-0.8749-1.72464-1.4161" style="fill:none;stroke:#303030;stroke-width:0.8;stroke-linecap:round;stroke-linejoin:round;stroke-miterlimit:10;"/></g><g><path d="    M40.02264,23.04291c0,0.54131-0.64829,1.03846-1.72444,1.41621c-1.00088,0.35875-2.36668,0.61677-3.93402,0.73013    c-0.58525,0.04405-1.19576,0.0692-1.82526,0.0692c-1.1896,0-2.30979-0.08183-3.31067-0.2266    c-0.9441-0.13851-1.78122-0.33359-2.4484-0.57273c-1.07625-0.37774-1.72464-0.8749-1.72464-1.41621" style="fill:none;stroke:#303030;stroke-width:0.8;stroke-linecap:round;stroke-linejoin:round;stroke-miterlimit:10;"/></g><g><path d="    M40.02049,25.74451c0,0.49531-0.55589,0.96033-1.48582,1.33427c0,0-1.32251,0.63615-4.17448,0.80867    c-0.58628,0.04035-1.19278,0.07074-1.81942,0.07074c-0.17188,0-0.34365,0-0.50537-0.01016" style="fill:none;stroke:#303030;stroke-width:0.8;stroke-linecap:round;stroke-linejoin:round;stroke-miterlimit:10;"/><line style="fill:none;stroke:#303030;stroke-width:0.8;stroke-linecap:round;stroke-linejoin:round;stroke-miterlimit:10;" x1="25.05535" x2="25.05089" y1="17.77667" y2="24.81834"/></g><g><path d="    M32.0354,30.64687c0.16171,0.01006,0.33349,0.01006,0.50537,0.01006c0.62663,0,1.23314-0.03029,1.81942-0.07074    c2.63824-0.15751,4.18465-0.81874,4.18465-0.81874c0.91195-0.32674,1.47565-0.8288,1.47565-1.32411" style="fill:none;stroke:#303030;stroke-width:0.8;stroke-linecap:round;stroke-linejoin:round;stroke-miterlimit:10;"/><line style="fill:none;stroke:#303030;stroke-width:0.8;stroke-linecap:round;stroke-linejoin:round;stroke-miterlimit:10;" x1="25.82917" x2="25.81911" y1="29.42379" y2="29.42379"/></g><g><path d="    M40.02226,17.6495l0.00623,1.8187l-0.008,11.67387c0,0.49531-0.55589,0.95016-1.48582,1.32421    c0,0-0.16171,0.06058-0.24262,0.09097c-1.00058,0.35372-2.36514,0.61657-3.93186,0.72777    c-0.58628,0.04035-1.19278,0.07074-1.81942,0.07074c-0.17188,0-0.34365,0-0.50537-0.01017" style="fill:none;stroke:#303030;stroke-width:0.8;stroke-linecap:round;stroke-linejoin:round;stroke-miterlimit:10;"/></g><g><path d="    M32.0355,27.23043c0,0.23246-0.12136,0.45485-0.34376,0.66708c-0.02023,0.02023-0.04035,0.03029-0.06068,0.05052    c-0.01006,0.01016-0.02023,0.02023-0.03019,0.03039c-0.88948,0.73783-3.05265,1.29371-5.70086,1.4353    c-0.03039,0.01006-0.05052,0.01006-0.07084,0.01006h-0.01006c-0.25269,0.01006-0.50537,0.02023-0.76822,0.02023    c-0.16161,0.01006-0.32343,0.01006-0.49531,0.01006c-0.6368,0-1.2431-0.02023-1.82948-0.07074h-0.05052    c-0.34366-0.03029-0.67715-0.06058-1.00058-0.10103c-1.62751-0.20217-2.96158-0.56605-3.77035-1.0209    c-0.03029-0.02023-0.07074-0.04045-0.10103-0.06068c-0.47508-0.29314-0.73783-0.62663-0.73783-0.97029    c0-1.05119,2.51689-1.94078,5.8827-2.15301c0.51543-0.04045,1.06136-0.06068,1.60708-0.06068c0.16171,0,0.3337,0,0.49531,0.01016    C28.95246,25.09765,32.0355,26.06804,32.0355,27.23043z" style="fill:none;stroke:#303030;stroke-width:0.8;stroke-linecap:round;stroke-linejoin:round;stroke-miterlimit:10;"/><path d="    M32.0354,29.98984c0,0.21223-0.10114,0.4144-0.28308,0.6064c-0.01006,0.01016-0.54432,0.5409-1.44537,0.80867    c-1.00068,0.35382-2.36524,0.61657-3.93196,0.72777c-0.13143,0.01006-1.2399,0.07074-1.81941,0.07074    c-0.64686,0-1.26342-0.02023-1.85976-0.07074c-0.50547-0.04045-0.99062-0.09097-1.45553-0.16172    c-0.9401-0.13142-1.77896-0.33359-2.44614-0.56605c-0.594-0.19049-1.0512-0.49531-1.0512-0.49531    c-0.43463-0.28297-0.67725-0.59634-0.67725-0.91977" style="fill:none;stroke:#303030;stroke-width:0.8;stroke-linecap:round;stroke-linejoin:round;stroke-miterlimit:10;"/></g><g><path d="    M32.0354,32.68857c0,0.21233-0.10114,0.4145-0.28308,0.60651c-0.01006,0.01006-0.03029,0.03029-0.05052,0.05051    c-0.29314,0.28308-0.76822,0.53576-1.39485,0.75806c-1.00068,0.35382-2.36524,0.61667-3.93196,0.72776    c-0.58628,0.04045-1.19268,0.07085-1.81941,0.07085c-1.19268,0-2.31462-0.08091-3.3153-0.23256    c-0.9401-0.13132-1.77896-0.33349-2.44614-0.56605c-0.48687-0.1754-0.99051-0.45475-0.99051-0.45475    c-0.47508-0.29314-0.73793-0.61667-0.73793-0.96032" style="fill:none;stroke:#303030;stroke-width:0.8;stroke-linecap:round;stroke-linejoin:round;stroke-miterlimit:10;"/></g><g><path d="    M32.03458,35.38206c0,0.54121-0.64829,1.03846-1.72454,1.41621c-1.00088,0.35865-2.36657,0.61678-3.93392,0.73003    c-0.58525,0.04405-1.19576,0.06931-1.82527,0.06931c-1.1896,0-2.30979-0.08194-3.31067-0.22671    c-0.9441-0.13841-1.78122-0.33349-2.44841-0.57262c-1.07635-0.37774-1.72464-0.875-1.72464-1.41621" style="fill:none;stroke:#303030;stroke-width:0.8;stroke-linecap:round;stroke-linejoin:round;stroke-miterlimit:10;"/><line style="fill:none;stroke:#303030;stroke-width:0.8;stroke-linecap:round;stroke-linejoin:round;stroke-miterlimit:10;" x1="17.06569" x2="17.06569" y1="27.23043" y2="35.37724"/><line style="fill:none;stroke:#303030;stroke-width:0.8;stroke-linecap:round;stroke-linejoin:round;stroke-miterlimit:10;" x1="32.0354" x2="32.0354" y1="27.29343" y2="35.37724"/></g></g></svg>