<?xml version="1.0" ?><svg style="enable-background:new 0 0 48 48;" version="1.1" viewBox="0 0 48 48" xml:space="preserve" xmlns="http://www.w3.org/2000/svg" xmlns:xlink="http://www.w3.org/1999/xlink"><g id="Icons"><g><path d="M20.62041,7.75146h6.76921c7.12323,0,12.90066,7.27509,12.90066,16.25002    s-5.77742,16.24981-12.90066,16.24981h-6.76921" style="fill:#DB9A16;"/><ellipse cx="20.61788" cy="23.9995" rx="12.90816" ry="16.25081" style="fill:#FFC601;"/><ellipse cx="20.61788" cy="23.9995" rx="12.90816" ry="16.25081" style="fill:none;stroke:#303030;stroke-width:0.8;stroke-linecap:round;stroke-linejoin:round;stroke-miterlimit:10;"/><path d="    M20.61788,36.40524c-5.44221,0-9.85396-5.55423-9.85396-12.40577" style="fill:none;stroke:#303030;stroke-width:0.8;stroke-linecap:round;stroke-linejoin:round;stroke-miterlimit:10;"/><line style="fill:none;stroke:#303030;stroke-width:0.8;stroke-linecap:round;stroke-linejoin:round;stroke-miterlimit:10;" x1="24.01004" x2="24" y1="39.68464" y2="39.68464"/><line style="fill:none;stroke:#303030;stroke-width:0.8;stroke-linecap:round;stroke-linejoin:round;stroke-miterlimit:10;" x1="24.01004" x2="24" y1="8.31811" y2="8.31811"/><path d="    M20.62041,7.75146h6.76921c7.12323,0,12.90066,7.27509,12.90066,16.25002s-5.77742,16.24981-12.90066,16.24981h-6.76921" style="fill:none;stroke:#303030;stroke-width:0.8;stroke-linecap:round;stroke-linejoin:round;stroke-miterlimit:10;"/><line style="fill:none;stroke:#303030;stroke-width:0.8;stroke-linecap:round;stroke-linejoin:round;stroke-miterlimit:10;" x1="34.50272" x2="27.78211" y1="10.44298" y2="10.44298"/><line style="fill:none;stroke:#303030;stroke-width:0.8;stroke-linecap:round;stroke-linejoin:round;stroke-miterlimit:10;" x1="38.0238" x2="31.32604" y1="14.80389" y2="14.80389"/><line style="fill:none;stroke:#303030;stroke-width:0.8;stroke-linecap:round;stroke-linejoin:round;stroke-miterlimit:10;" x1="39.7136" x2="33.01771" y1="19.16491" y2="19.16491"/><line style="fill:none;stroke:#303030;stroke-width:0.8;stroke-linecap:round;stroke-linejoin:round;stroke-miterlimit:10;" x1="40.28014" x2="33.61069" y1="23.51568" y2="23.51568"/><line style="fill:none;stroke:#303030;stroke-width:0.8;stroke-linecap:round;stroke-linejoin:round;stroke-miterlimit:10;" x1="39.91597" x2="33.25544" y1="27.8767" y2="27.8767"/><line style="fill:none;stroke:#303030;stroke-width:0.8;stroke-linecap:round;stroke-linejoin:round;stroke-miterlimit:10;" x1="38.5095" x2="31.87807" y1="32.23761" y2="32.23761"/><line style="fill:none;stroke:#303030;stroke-width:0.8;stroke-linecap:round;stroke-linejoin:round;stroke-miterlimit:10;" x1="35.54481" x2="28.77581" y1="36.58848" y2="36.58848"/></g></g></svg>