<?xml version="1.0" ?><svg style="enable-background:new 0 0 48 48;" version="1.1" viewBox="0 0 48 48" xml:space="preserve" xmlns="http://www.w3.org/2000/svg" xmlns:xlink="http://www.w3.org/1999/xlink"><g id="Icons"><path d="M14.18405,36.65602c0,1.21342,2.49327,2.25363,6.04308,2.69113   c1.16414,0.14046,2.43536,0.22291,3.77292,0.22291c4.26802,0,7.89237-0.80898,9.24636-1.93995   c0.37138-0.30536,0.56964-0.63577,0.56964-0.97409v-2.48931h-19.632V36.65602z" style="fill:#DB9A16;"/><path d="M14.18405,33.09562c0,1.21342,2.49327,2.25363,6.04308,2.69113   c1.16414,0.14046,2.43536,0.22291,3.77292,0.22291c4.26802,0,7.89237-0.80898,9.24636-1.93996   c0.37138-0.30536,0.56964-0.63577,0.56964-0.97408c0-1.60164-4.39216-2.90613-9.816-2.90613   C18.576,30.18949,14.18405,31.49398,14.18405,33.09562z" style="fill:#FFC601;"/><path d="M8.71287,33.30218c0,1.21342,2.49327,2.25363,6.04308,2.69113   c1.16414,0.14046,2.43536,0.22291,3.77292,0.22291c4.26802,0,7.89237-0.80898,9.24636-1.93995   c0.37138-0.30536,0.56964-0.63577,0.56964-0.97409v-2.48931h-19.632V33.30218z" style="fill:#DB9A16;"/><path d="M8.71287,29.74178c0,1.21342,2.49327,2.25363,6.04308,2.69113   c1.16414,0.14046,2.43536,0.22291,3.77292,0.22291c4.26802,0,7.89237-0.80898,9.24636-1.93996   c0.37138-0.30536,0.56964-0.63577,0.56964-0.97408c0-1.60164-4.39216-2.90613-9.816-2.90613   C13.10483,26.83565,8.71287,28.14014,8.71287,29.74178z" style="fill:#FFC601;"/><path d="M14.18128,29.42192c0,1.21342,2.49327,2.25363,6.04308,2.69113   c1.16414,0.14046,2.43537,0.22291,3.77292,0.22291c4.26802,0,7.89237-0.80898,9.24636-1.93995   c0.37138-0.30536,0.56964-0.63577,0.56964-0.97408V26.9326h-19.632V29.42192z" style="fill:#DB9A16;"/><path d="M14.18128,25.67261c0,1.21342,2.49327,2.25363,6.04308,2.69113   c1.16414,0.14046,2.43537,0.22291,3.77292,0.22291c4.26802,0,7.89237-0.80898,9.24636-1.93995   c0.37138-0.30536,0.56964-0.63577,0.56964-0.97408V23.1833h-19.632V25.67261z" style="fill:#FFC601;"/><path d="M14.18128,21.93781c0,1.21342,2.49327,2.25363,6.04308,2.69113   c1.16414,0.14046,2.43537,0.22291,3.77292,0.22291c4.26802,0,7.89237-0.80898,9.24636-1.93995   c0.37138-0.30536,0.56964-0.63577,0.56964-0.97408v-2.48931h-19.632V21.93781z" style="fill:#DB9A16;"/><path d="M14.18128,18.3774c0,1.21342,2.49327,2.25363,6.04308,2.69113   c1.16414,0.14046,2.43537,0.22291,3.77292,0.22291c4.26802,0,7.89237-0.80898,9.24636-1.93995   c0.37138-0.30536,0.56964-0.63577,0.56964-0.97408c0-1.60164-4.39216-2.90613-9.816-2.90613   C18.57323,15.47127,14.18128,16.77576,14.18128,18.3774z" style="fill:#FFC601;"/><path d="M19.65507,18.4487c0,1.21342,2.49327,2.25363,6.04308,2.69113   c1.16414,0.14046,2.43537,0.22291,3.77292,0.22291c4.26802,0,7.89237-0.80898,9.24636-1.93995   c0.37138-0.30536,0.56964-0.63577,0.56964-0.97408v-2.48931h-19.632V18.4487z" style="fill:#DB9A16;"/><path d="M19.65507,14.88829c0,1.21342,2.49327,2.25363,6.04308,2.69113   c1.16414,0.14046,2.43537,0.22291,3.77292,0.22291c4.26802,0,7.89237-0.80898,9.24636-1.93995   c0.37138-0.30536,0.56964-0.63577,0.56964-0.97408c0-1.60164-4.39216-2.90613-9.816-2.90613   C24.04703,11.98216,19.65507,13.28665,19.65507,14.88829z" style="fill:#FFC601;"/><path d="M14.184,14.76676c0,1.21342,2.49327,2.25363,6.04308,2.69113   C21.39122,17.59835,22.66244,17.6808,24,17.6808c4.26802,0,7.89237-0.80898,9.24636-1.93996   c0.37138-0.30536,0.56964-0.63577,0.56964-0.97408v-2.48931H14.184V14.76676z" style="fill:#DB9A16;"/><path d="M14.184,11.20635c0,1.21342,2.49327,2.25363,6.04308,2.69113   c1.16414,0.14046,2.43536,0.22291,3.77292,0.22291c4.26802,0,7.89237-0.80898,9.24636-1.93995   c0.37138-0.30536,0.56964-0.63577,0.56964-0.97408c0-1.60164-4.39216-2.90613-9.816-2.90613   C18.57595,8.30022,14.184,9.60471,14.184,11.20635z" style="fill:#FFC601;"/><path d="   M14.184,11.20635c0,1.21342,2.49327,2.25363,6.04308,2.69113c1.16414,0.14046,2.43536,0.22291,3.77292,0.22291   c4.26802,0,7.89237-0.80898,9.24636-1.93995c0.37138-0.30536,0.56964-0.63577,0.56964-0.97408   c0-1.60164-4.39216-2.90613-9.816-2.90613C18.57595,8.30022,14.184,9.60471,14.184,11.20635z" style="fill:none;stroke:#303030;stroke-width:0.8;stroke-linecap:round;stroke-linejoin:round;stroke-miterlimit:10;"/><path d="   M33.8159,14.81396c0,0.71-0.85036,1.3622-2.26215,1.85751c-1.3126,0.47066-3.10409,0.80909-5.15976,0.95766   C25.62628,17.68704,24.82551,17.72,24,17.72c-1.56036,0-3.02986-0.1073-4.34246-0.29725   c-1.23837-0.18153-2.33639-0.4375-3.21149-0.75128c-1.41169-0.49531-2.26205-1.1475-2.26205-1.85751" style="fill:none;stroke:#303030;stroke-width:0.8;stroke-linecap:round;stroke-linejoin:round;stroke-miterlimit:10;"/><line style="fill:none;stroke:#303030;stroke-width:0.8;stroke-linecap:round;stroke-linejoin:round;stroke-miterlimit:10;" x1="14.184" x2="14.184" y1="11.20635" y2="14.81396"/><line style="fill:none;stroke:#303030;stroke-width:0.8;stroke-linecap:round;stroke-linejoin:round;stroke-miterlimit:10;" x1="33.8159" x2="33.8159" y1="11.20635" y2="14.81396"/><path d="   M33.8159,25.88497c0,0.71-0.85036,1.3622-2.26215,1.85751c-1.3126,0.47066-3.10409,0.80908-5.15976,0.95766   C25.62628,28.75804,24.82551,28.791,24,28.791c-1.56036,0-3.02986-0.1073-4.34246-0.29725   c-1.23837-0.18153-2.33639-0.4375-3.21149-0.75128c-1.41169-0.49531-2.26205-1.1475-2.26205-1.85751" style="fill:none;stroke:#303030;stroke-width:0.8;stroke-linecap:round;stroke-linejoin:round;stroke-miterlimit:10;"/><line style="fill:none;stroke:#303030;stroke-width:0.8;stroke-linecap:round;stroke-linejoin:round;stroke-miterlimit:10;" x1="14.184" x2="14.184" y1="22.27726" y2="25.88497"/><line style="fill:none;stroke:#303030;stroke-width:0.8;stroke-linecap:round;stroke-linejoin:round;stroke-miterlimit:10;" x1="33.8159" x2="33.8159" y1="21.0839" y2="25.88497"/><path d="   M33.24625,12.18044c0.18995,0.02485,0.3797,0.04959,0.56964,0.08255c3.24445,0.47056,5.47343,1.46128,5.47343,2.60878   c0,1.20531-2.49317,2.24552-6.03487,2.68302c-1.16403,0.14046-2.44358,0.22301-3.78113,0.22301   c-1.08138,0-2.11337-0.04959-3.07935-0.14867" style="fill:none;stroke:#303030;stroke-width:0.8;stroke-linecap:round;stroke-linejoin:round;stroke-miterlimit:10;"/><path d="   M19.65518,18.47631c0,1.60985,4.39195,2.90603,9.816,2.90603c5.42384,0,9.8158-1.29618,9.8158-2.90603" style="fill:none;stroke:#303030;stroke-width:0.8;stroke-linecap:round;stroke-linejoin:round;stroke-miterlimit:10;"/><line style="fill:none;stroke:#303030;stroke-width:0.8;stroke-linecap:round;stroke-linejoin:round;stroke-miterlimit:10;" x1="19.65754" x2="19.65754" y1="17.42275" y2="18.47949"/><line style="fill:none;stroke:#303030;stroke-width:0.8;stroke-linecap:round;stroke-linejoin:round;stroke-miterlimit:10;" x1="39.28697" x2="39.28697" y1="14.86859" y2="18.47631"/><path d="   M27.07935,21.29475C26.11337,21.39363,25.07317,21.44322,24,21.44322c-5.42405,0-9.816-1.30439-9.816-2.91425   c0-0.70168,0.85036-1.35388,2.26205-1.85751" style="fill:none;stroke:#303030;stroke-width:0.8;stroke-linecap:round;stroke-linejoin:round;stroke-miterlimit:10;"/><path d="   M14.184,22.13864c0,1.60985,4.39195,2.90603,9.816,2.90603c5.42384,0,9.8159-1.29618,9.8159-2.90603" style="fill:none;stroke:#303030;stroke-width:0.8;stroke-linecap:round;stroke-linejoin:round;stroke-miterlimit:10;"/><line style="fill:none;stroke:#303030;stroke-width:0.8;stroke-linecap:round;stroke-linejoin:round;stroke-miterlimit:10;" x1="14.184" x2="14.184" y1="18.53093" y2="22.13864"/><path d="   M14.1841,29.46918c0,0.7099,0.85026,1.36209,2.26195,1.85751c1.31271,0.47056,3.10419,0.80898,5.15976,0.95755   C22.37362,32.34214,23.17449,32.3751,24,32.3751c1.56026,0,3.02986-0.1073,4.34246-0.29715   c1.23837-0.18163,2.33639-0.4375,3.21139-0.75128c1.41179-0.49541,2.26215-1.14761,2.26215-1.85751" style="fill:none;stroke:#303030;stroke-width:0.8;stroke-linecap:round;stroke-linejoin:round;stroke-miterlimit:10;"/><line style="fill:none;stroke:#303030;stroke-width:0.8;stroke-linecap:round;stroke-linejoin:round;stroke-miterlimit:10;" x1="33.816" x2="33.816" y1="25.86146" y2="29.46918"/><line style="fill:none;stroke:#303030;stroke-width:0.8;stroke-linecap:round;stroke-linejoin:round;stroke-miterlimit:10;" x1="14.1841" x2="14.1841" y1="25.86146" y2="29.46918"/><path d="   M14.1841,26.91809c-3.24445,0.47066-5.47344,1.46128-5.47344,2.60878c0,1.20531,2.49317,2.24562,6.03487,2.68312   c1.16393,0.14036,2.44358,0.22291,3.78093,0.22291c1.08159,0,2.11358-0.04959,3.07935-0.14867" style="fill:none;stroke:#303030;stroke-width:0.8;stroke-linecap:round;stroke-linejoin:round;stroke-miterlimit:10;"/><path d="   M28.34482,33.13141c0,1.60985-4.39195,2.90603-9.816,2.90603c-5.42384,0-9.8159-1.29618-9.8159-2.90603" style="fill:none;stroke:#303030;stroke-width:0.8;stroke-linecap:round;stroke-linejoin:round;stroke-miterlimit:10;"/><line style="fill:none;stroke:#303030;stroke-width:0.8;stroke-linecap:round;stroke-linejoin:round;stroke-miterlimit:10;" x1="28.34246" x2="28.34246" y1="32.07796" y2="33.13459"/><line style="fill:none;stroke:#303030;stroke-width:0.8;stroke-linecap:round;stroke-linejoin:round;stroke-miterlimit:10;" x1="8.71292" x2="8.71292" y1="29.52369" y2="33.13141"/><path d="   M20.92065,35.94986c0.96597,0.09908,2.00608,0.14847,3.07935,0.14847c5.42395,0,9.816-1.30439,9.816-2.91414   c0-0.70179-0.85036-1.35398-2.26215-1.8575" style="fill:none;stroke:#303030;stroke-width:0.8;stroke-linecap:round;stroke-linejoin:round;stroke-miterlimit:10;"/><path d="   M33.816,36.79385c0,1.60975-4.39206,2.90593-9.816,2.90593c-5.42384,0-9.8159-1.29618-9.8159-2.90593" style="fill:none;stroke:#303030;stroke-width:0.8;stroke-linecap:round;stroke-linejoin:round;stroke-miterlimit:10;"/><line style="fill:none;stroke:#303030;stroke-width:0.8;stroke-linecap:round;stroke-linejoin:round;stroke-miterlimit:10;" x1="33.816" x2="33.816" y1="33.18614" y2="36.79385"/><line style="fill:none;stroke:#303030;stroke-width:0.8;stroke-linecap:round;stroke-linejoin:round;stroke-miterlimit:10;" x1="14.1841" x2="14.1841" y1="35.74338" y2="36.7919"/></g></svg>