<?xml version="1.0" ?><svg style="enable-background:new 0 0 48 48;" version="1.1" viewBox="0 0 48 48" xml:space="preserve" xmlns="http://www.w3.org/2000/svg" xmlns:xlink="http://www.w3.org/1999/xlink"><g id="Icons"><path d="M7.15182,24.26509v3.03c0,1.29,0.82,2.48,2.2,3.45c0.9,0.63,2.04,1.16,3.36,1.55   c1.03,0.32,2.16,0.54,3.36,0.67c0.7,0.07,1.42,0.11,2.16,0.11c1.62,0,3.17-0.18,4.56-0.52c1.26-0.28,2.41-0.7,3.36-1.22   c0.58-0.3,1.1-0.65,1.54-1.02v-4.785" style="fill:#DB9A16;"/><path d="M20.12182,18.58509c-0.09-0.02-0.2-0.03-0.3-0.03c-0.52-0.05-1.04-0.07-1.57-0.07   c-6.13,0-11.09,2.59-11.09,5.77c0,2.8,3.84,5.13,8.93,5.66c0.7,0.07,1.42,0.11,2.16,0.11c0.4,0,0.81-0.01,1.2-0.04   c1.19-0.07,2.32-0.22,3.36-0.48c0.73-0.17,1.41-0.37,2.05-0.63h0.01c0.02-0.01,0.03-0.01,0.05-0.03" style="fill:#FFC601;"/><path d="M20.41182,17.2851l-1.26,2.75c-0.54,1.18-0.3,2.6,0.56,4.06c0.55,0.96,1.38,1.91,2.41,2.81   c0.8,0.71,1.71,1.39,2.75,2h0.01c0.01,0.01,0.02,0.02,0.03,0.02c0.41,0.24,0.83,0.48,1.27,0.68c0.21,0.11,0.42,0.22,0.64,0.32   c0.3,0.14,0.6,0.26,0.9,0.38c0.07,0.04,0.14,0.07,0.22,0.08c5.17,2.04,10.13,1.63,11.37-1.07h-0.01l1.26-2.75" style="fill:#DB9A16;"/><path d="M40.56182,26.56509c-0.66,1.42-2.35,2.22-4.55,2.34c-1.09,0.06-2.3-0.04-3.57-0.3   c-1.01-0.2-2.06-0.51-3.13-0.93c-0.05-0.01-0.08-0.03-0.12-0.05c-0.37-0.14-0.74-0.3-1.11-0.47c-0.67-0.31-1.31-0.65-1.92-1   c-1.04-0.62-1.97-1.29-2.77-2v-0.01c-1.03-0.9-1.86-1.86-2.41-2.81c-0.56-0.95-0.86-1.88-0.85-2.75c0.01-0.46,0.1-0.89,0.29-1.3   c1.33-2.9,6.92-3.16,12.49-0.6C38.46181,19.25509,41.89182,23.67509,40.56182,26.56509z" style="fill:#FFC601;"/><path d="M20.12182,18.58509   c-0.09-0.02-0.2-0.03-0.3-0.03c-0.52-0.05-1.04-0.07-1.57-0.07c-6.13,0-11.09,2.59-11.09,5.77c0,2.8,3.84,5.13,8.93,5.66   c0.7,0.07,1.42,0.11,2.16,0.11c0.4,0,0.81-0.01,1.2-0.04c1.19-0.07,3.36-0.23038,5.41-1.11h0.01c0.02-0.01,0.03-0.01,0.05-0.03" style="fill:none;stroke:#303030;stroke-width:0.8;stroke-linecap:round;stroke-miterlimit:10;"/><path d="M9.78182,24.26509   c0-2.43,3.79-4.12,8.47-4.12" style="fill:none;stroke:#303030;stroke-width:0.8;stroke-linecap:round;stroke-miterlimit:10;"/><line style="fill:none;stroke:#303030;stroke-width:0.8;stroke-linecap:round;stroke-miterlimit:10;" x1="7.54182" x2="7.54182" y1="25.7851" y2="25.77509"/><path d="M7.15182,24.26509v3.03   c0,1.29,0.82,2.48,2.2,3.45c0.9,0.63,2.04,1.16,3.36,1.55c1.03,0.32,2.16,0.54,3.36,0.67c0.7,0.07,1.42,0.11,2.16,0.11   c1.62,0,3.17-0.18,4.56-0.52c1.26-0.28,2.41-0.7,3.36-1.22c0.58-0.3,1.1-0.65,1.54-1.02" style="fill:none;stroke:#303030;stroke-width:0.8;stroke-linecap:round;stroke-miterlimit:10;"/><line style="fill:none;stroke:#303030;stroke-width:0.8;stroke-linecap:round;stroke-miterlimit:10;" x1="26.17182" x2="26.17182" y1="31.31509" y2="29.71228"/><line style="fill:none;stroke:#303030;stroke-width:0.8;stroke-linecap:round;stroke-miterlimit:10;" x1="22.81182" x2="22.81182" y1="32.5351" y2="29.61089"/><line style="fill:none;stroke:#303030;stroke-width:0.8;stroke-linecap:round;stroke-miterlimit:10;" x1="19.45182" x2="19.45182" y1="33.01509" y2="29.99509"/><line style="fill:none;stroke:#303030;stroke-width:0.8;stroke-linecap:round;stroke-miterlimit:10;" x1="16.08182" x2="16.08182" y1="32.9451" y2="29.92509"/><line style="fill:none;stroke:#303030;stroke-width:0.8;stroke-linecap:round;stroke-miterlimit:10;" x1="12.72182" x2="12.72182" y1="32.2851" y2="29.26509"/><line style="fill:none;stroke:#303030;stroke-width:0.8;stroke-linecap:round;stroke-miterlimit:10;" x1="9.36182" x2="9.36182" y1="30.74509" y2="27.72509"/><path d="M40.56182,26.56509   c-0.66,1.42-2.35,2.22-4.55,2.34c-1.09,0.06-2.3-0.04-3.57-0.3c-1.01-0.2-2.06-0.51-3.13-0.93c-0.05-0.01-0.08-0.03-0.12-0.05   c-0.37-0.14-0.74-0.3-1.11-0.47c-0.67-0.31-1.31-0.65-1.92-1c-1.04-0.62-2.77-2.01-2.77-2.01c-1.03-0.9-1.86-1.86-2.41-2.81   c-0.56-0.95-0.86-1.88-0.85-2.75c0.01-0.46,0.1-0.89,0.29-1.3c1.33-2.9,6.92-3.16,12.49-0.6   C38.46181,19.25509,41.89182,23.67509,40.56182,26.56509z" style="fill:none;stroke:#303030;stroke-width:0.8;stroke-linecap:round;stroke-miterlimit:10;"/><path d="M22.80182,18.38509   c1.02-2.21,5.17-2.16,9.42-0.2" style="fill:none;stroke:#303030;stroke-width:0.8;stroke-linecap:round;stroke-miterlimit:10;"/><line style="fill:none;stroke:#303030;stroke-width:0.8;stroke-linecap:round;stroke-miterlimit:10;" x1="20.13181" x2="20.13181" y1="18.82509" y2="18.82509"/><line style="fill:none;stroke:#303030;stroke-width:0.8;stroke-linecap:round;stroke-miterlimit:10;" x1="39.58182" x2="39.58182" y1="27.7851" y2="27.77509"/><path d="M20.41182,17.2851   l-1.26,2.75c-0.54,1.18-0.3,2.6,0.56,4.06c0.952,1.63424,2.41,3.27468,5.16,4.81h0.01c0.01,0.01,1.10391,0.7058,3.06,1.48   c5.17,2.04,10.13,1.63,11.37-1.07h-0.01l1.26-2.75" style="fill:none;stroke:#303030;stroke-width:0.8;stroke-linecap:round;stroke-miterlimit:10;"/><line style="fill:none;stroke:#303030;stroke-width:0.8;stroke-linecap:round;stroke-miterlimit:10;" x1="34.74182" x2="36.01181" y1="31.65509" y2="28.90509"/><line style="fill:none;stroke:#303030;stroke-width:0.8;stroke-linecap:round;stroke-miterlimit:10;" x1="31.18182" x2="32.44181" y1="31.35509" y2="28.60509"/><polyline points="   29.19182,27.63509 28.15182,29.88509 27.92182,30.38509  " style="fill:none;stroke:#303030;stroke-width:0.8;stroke-linecap:round;stroke-miterlimit:10;"/><polyline points="   26.15182,26.16509 24.92182,28.8651 24.90182,28.91509  " style="fill:none;stroke:#303030;stroke-width:0.8;stroke-linecap:round;stroke-miterlimit:10;"/><line style="fill:none;stroke:#303030;stroke-width:0.8;stroke-linecap:round;stroke-miterlimit:10;" x1="22.12182" x2="23.38181" y1="26.90509" y2="24.15509"/><line style="fill:none;stroke:#303030;stroke-width:0.8;stroke-linecap:round;stroke-miterlimit:10;" x1="19.71181" x2="20.97182" y1="24.09509" y2="21.34509"/></g></svg>